<svg height="565pt" viewBox="-17 -49 565.33331 565" width="565pt" xmlns="http://www.w3.org/2000/svg"><path d="m521.25 415.679688h-412.5c-32.429688-.027344-58.714844-26.3125-58.75-58.75v-350.097657c.003906-2.734375.199219-5.460937.582031-8.167969-28.988281 4.101563-50.5468748 28.898438-50.582031 58.167969v350.097657c.0351562 32.4375 26.320312 58.722656 58.75 58.75h412.5c29.273438-.03125 54.066406-21.589844 58.167969-50.574219-2.703125.378906-5.433594.574219-8.167969.574219zm0 0" fill="#d4e1f4"/><path d="m530 56.832031v350.097657c-.035156 32.4375-26.320312 58.722656-58.75 58.75h-412.5c-32.429688-.027344-58.7148438-26.3125-58.75-58.75v-350.097657c.0351562-32.429687 26.320312-58.714843 58.75-58.75h412.5c32.429688.035157 58.714844 26.320313 58.75 58.75zm-17.5 350.097657v-268.734376h-495v268.734376c.023438 22.773437 18.476562 41.230468 41.25 41.25h412.5c22.773438-.019532 41.226562-18.476563 41.25-41.25zm0-286.234376v-63.863281c-.023438-22.773437-18.476562-41.222656-41.25-41.25h-412.5c-22.773438.027344-41.226562 18.476563-41.25 41.25v63.863281zm0 0" fill="#0635c9"/><g fill="#1ae5be"><path d="m383.171875 274.621094-56.625-48.210938c-3.6875-3-9.09375-2.5-12.179687 1.117188-3.082032 3.621094-2.707032 9.042968.847656 12.207031l48.785156 41.546875-48.785156 41.554688c-2.464844 2-3.652344 5.175781-3.101563 8.300781.546875 3.128906 2.746094 5.710937 5.742188 6.75 3 1.042969 6.324219.382812 8.691406-1.726563l56.625-48.214844c1.953125-1.664062 3.082031-4.09375 3.082031-6.664062 0-2.5625-1.128906-5-3.082031-6.660156zm0 0"/><path d="m282.035156 189.546875c-4.726562-.996094-9.363281 2.03125-10.359375 6.757813l-35.289062 167.554687c-.996094 4.722656 2.027343 9.359375 6.753906 10.363281.59375.121094 1.199219.183594 1.8125.183594 4.132813-.003906 7.703125-2.898438 8.558594-6.949219l35.285156-167.546875c.988281-4.726562-2.035156-9.367187-6.761719-10.363281zm0 0"/><path d="m234.5 96.585938h.089844c15.253906-.007813 27.632812-12.34375 27.683594-27.605469v-.085938c-.015626-15.253906-12.355469-27.621093-27.609376-27.6875h-.074218c-15.292969-.023437-27.710938 12.355469-27.734375 27.644531-.023438 15.292969 12.355469 27.707032 27.644531 27.734376zm.089844-37.878907h.023437c5.625.007813 10.183594 4.578125 10.171875 10.203125-.003906 5.625-4.570312 10.179688-10.195312 10.175782h-.039063c-5.625-.011719-10.179687-4.582032-10.171875-10.207032.011719-5.628906 4.582032-10.179687 10.210938-10.171875zm0 0"/><path d="m143.75 281.28125c0 2.5625 1.125 5 3.078125 6.664062l56.625 48.214844c3.6875 2.996094 9.09375 2.5 12.179687-1.125 3.082032-3.617187 2.707032-9.035156-.847656-12.199218l-48.785156-41.554688 48.785156-41.546875c3.554688-3.164063 3.929688-8.585937.847656-12.207031-3.085937-3.617188-8.492187-4.117188-12.179687-1.117188l-56.625 48.210938c-1.953125 1.664062-3.078125 4.097656-3.078125 6.660156zm0 0"/><path d="m121.8125 68.546875c-.023438 15.285156 12.320312 27.707031 27.601562 27.773437h.085938c15.25-.015624 27.625-12.347656 27.6875-27.597656v-.085937c-.003906-15.261719-12.34375-27.636719-27.597656-27.691407h-.089844c-15.257812.003907-27.632812 12.347657-27.6875 27.601563zm20.511719-7.136719c1.898437-1.90625 4.480469-2.976562 7.175781-2.964844h.035156c5.628906.007813 10.183594 4.578126 10.171875 10.203126-.011719 5.632812-4.582031 10.183593-10.207031 10.171874h-.027344c-4.121094-.007812-7.832031-2.5-9.394531-6.3125-1.566406-3.8125-.679687-8.199218 2.246094-11.097656zm0 0"/><path d="m64.511719 40.671875c-15.292969-.050781-27.734375 12.308594-27.777344 27.605469-.050781 15.292968 12.308594 27.730468 27.601563 27.78125h.085937c15.300781.023437 27.71875-12.355469 27.742187-27.648438.023438-15.296875-12.355468-27.714844-27.652343-27.738281zm-.089844 37.886719h-.03125c-5.632813-.011719-10.1875-4.582032-10.175781-10.210938.007812-5.628906 4.578125-10.1875 10.207031-10.175781h.039063c5.632812.007813 10.1875 4.578125 10.179687 10.210937-.011719 5.628907-4.585937 10.183594-10.21875 10.175782zm0 0"/></g></svg>