<?xml version="1.0" encoding="utf-8"?>
<!-- Generator: Adobe Illustrator 24.1.0, SVG Export Plug-In . SVG Version: 6.00 Build 0)  -->
<svg version="1.1" id="Layer_1" xmlns="http://www.w3.org/2000/svg" xmlns:xlink="http://www.w3.org/1999/xlink" x="0px" y="0px"
	 viewBox="0 0 24 24" style="enable-background:new 0 0 24 24;" xml:space="preserve">
<style type="text/css">
	.st0{fill:#013243;stroke:#013243;}
</style>
<path class="st0" d="M21.9,8.9l-1.7,1l-4-6.9l1.7-1L21.9,8.9 M9.8,7.9l3,5.2l6.1-3.5l-3-5.2L9.8,7.9 M11.4,12.7l-2-3.5l-4.3,2.5
	l2,3.5L11.4,12.7 M2.1,14.6l1,1.7l2.6-1.5l-1-1.7L2.1,14.6 M12.1,14l-0.3-0.4l-4.3,2.5l0.3,0.4c0.2,0.3,0.5,0.6,0.8,0.8L7,22h2
	l1.4-4.3h0.1L12,22h2l-1.9-5.6C12.6,15.7,12.6,14.8,12.1,14z"/>
</svg>
