<svg width="24" height="24" viewBox="0 0 24 24" fill="none" xmlns="http://www.w3.org/2000/svg">
<path d="M21.9 8.9L20.2 9.9L16.2 3L17.9 2L21.9 8.9ZM9.80001 7.9L12.8 13.1L18.9 9.6L15.9 4.4L9.80001 7.9ZM11.4 12.7L9.40001 9.2L5.10001 11.7L7.10001 15.2L11.4 12.7ZM2.10001 14.6L3.10001 16.3L5.70001 14.8L4.70001 13.1L2.10001 14.6ZM12.1 14L11.8 13.6L7.50001 16.1L7.80001 16.5C8.00001 16.8 8.30001 17.1 8.60001 17.3L7.00001 22H9.00001L10.4 17.7H10.5L12 22H14L12.1 16.4C12.6 15.7 12.6 14.8 12.1 14Z" fill="#013243" stroke="#013243"/>
</svg>
