<?xml version="1.0" encoding="utf-8"?>
<!-- Generator: Adobe Illustrator 24.1.0, SVG Export Plug-In . SVG Version: 6.00 Build 0)  -->
<svg version="1.1" id="Layer_1" xmlns="http://www.w3.org/2000/svg" xmlns:xlink="http://www.w3.org/1999/xlink" x="0px" y="0px"
	 viewBox="0 0 24 24" style="enable-background:new 0 0 24 24;" xml:space="preserve">
<style type="text/css">
	.st0{fill:#013243;stroke:#013243;}
</style>
<path class="st0" d="M13,3c3.9,0,7,3.1,7,7c0,2.8-1.6,5.2-4,6.3V21H9v-3H8c-1.1,0-2-0.9-2-2v-3H4.5c-0.4,0-0.7-0.5-0.4-0.8L6,9.7
	C6.2,5.9,9.2,3,13,3 M13,1C8.4,1,4.6,4.4,4.1,8.9L2.5,11c-0.6,0.7-0.7,1.7-0.3,2.6c0.4,0.7,1,1.2,1.8,1.4V16c0,1.9,1.3,3.4,3,3.9V23
	h11v-5.5c2.5-1.6,4-4.4,4-7.5C22,5,18,1,13,1 M16.1,9.4V9c0-0.1,0-0.2-0.1-0.4L16.9,8C17,7.9,17,7.8,17,7.7l-0.8-1.4
	c-0.1-0.1-0.2-0.1-0.3-0.1l-1,0.4c-0.2-0.2-0.4-0.3-0.6-0.4l-0.2-1C14.1,5.1,14,5,13.9,5h-1.6c-0.1,0-0.2,0.1-0.2,0.2l-0.1,1
	c-0.2,0.1-0.5,0.2-0.7,0.4l-1-0.4c-0.1-0.1-0.2,0-0.2,0.1L9.2,7.7C9.2,7.8,9.2,7.9,9.3,8l0.8,0.7c0,0.1,0,0.3,0,0.4
	c0,0.1,0,0.3,0,0.4l-0.8,0.6c-0.1,0.1-0.1,0.1-0.1,0.2l0.8,1.4c0.1,0.1,0.1,0.1,0.2,0.1l1-0.4c0.2,0.2,0.4,0.3,0.7,0.4l0.1,1.1
	c0,0.1,0.1,0.2,0.2,0.2h1.6c0.1,0,0.2-0.1,0.2-0.2l0.2-1.1c0.2-0.1,0.5-0.2,0.6-0.4l1,0.4c0.1,0,0.2,0,0.3-0.1l0.8-1.4
	c0-0.1,0-0.2-0.1-0.2L16.1,9.4 M13.1,10.4c-0.8,0-1.4-0.7-1.4-1.4s0.6-1.4,1.4-1.4c0.8,0,1.4,0.6,1.4,1.4S13.9,10.4,13.1,10.4z"/>
</svg>
