<svg width="24" height="24" viewBox="0 0 24 24" fill="none" xmlns="http://www.w3.org/2000/svg">
<path d="M17.9 17.39C17.64 16.59 16.89 16 16 16H15V13C15 12.7348 14.8946 12.4804 14.7071 12.2929C14.5196 12.1054 14.2652 12 14 12H8V10H10C10.2652 10 10.5196 9.89464 10.7071 9.70711C10.8946 9.51957 11 9.26522 11 9V7H13C13.5304 7 14.0391 6.78929 14.4142 6.41421C14.7893 6.03914 15 5.53043 15 5V4.59C17.93 5.77 20 8.64 20 12C20 14.08 19.2 15.97 17.9 17.39ZM11 19.93C7.05 19.44 4 16.08 4 12C4 11.38 4.08 10.78 4.21 10.21L9 15V16C9 16.5304 9.21071 17.0391 9.58579 17.4142C9.96086 17.7893 10.4696 18 11 18M12 2C10.6868 2 9.38642 2.25866 8.17317 2.7612C6.95991 3.26375 5.85752 4.00035 4.92893 4.92893C3.05357 6.8043 2 9.34784 2 12C2 14.6522 3.05357 17.1957 4.92893 19.0711C5.85752 19.9997 6.95991 20.7362 8.17317 21.2388C9.38642 21.7413 10.6868 22 12 22C14.6522 22 17.1957 20.9464 19.0711 19.0711C20.9464 17.1957 22 14.6522 22 12C22 10.6868 21.7413 9.38642 21.2388 8.17317C20.7362 6.95991 19.9997 5.85752 19.0711 4.92893C18.1425 4.00035 17.0401 3.26375 15.8268 2.7612C14.6136 2.25866 13.3132 2 12 2V2Z" fill="#013243"/>
<path d="M11 19.93C7.05 19.44 4 16.08 4 12C4 11.38 4.08 10.78 4.21 10.21L9 15V16C9 16.5304 9.21071 17.0391 9.58579 17.4142C9.96086 17.7893 10.4696 18 11 18M17.9 17.39C17.64 16.59 16.89 16 16 16H15V13C15 12.7348 14.8946 12.4804 14.7071 12.2929C14.5196 12.1054 14.2652 12 14 12H8V10H10C10.2652 10 10.5196 9.89464 10.7071 9.70711C10.8946 9.51957 11 9.26522 11 9V7H13C13.5304 7 14.0391 6.78929 14.4142 6.41421C14.7893 6.03914 15 5.53043 15 5V4.59C17.93 5.77 20 8.64 20 12C20 14.08 19.2 15.97 17.9 17.39ZM12 2C10.6868 2 9.38642 2.25866 8.17317 2.7612C6.95991 3.26375 5.85752 4.00035 4.92893 4.92893C3.05357 6.8043 2 9.34784 2 12C2 14.6522 3.05357 17.1957 4.92893 19.0711C5.85752 19.9997 6.95991 20.7362 8.17317 21.2388C9.38642 21.7413 10.6868 22 12 22C14.6522 22 17.1957 20.9464 19.0711 19.0711C20.9464 17.1957 22 14.6522 22 12C22 10.6868 21.7413 9.38642 21.2388 8.17317C20.7362 6.95991 19.9997 5.85752 19.0711 4.92893C18.1425 4.00035 17.0401 3.26375 15.8268 2.7612C14.6136 2.25866 13.3132 2 12 2V2Z" stroke="#013243"/>
</svg>
