<?xml version="1.0" encoding="utf-8"?>
<!-- Generator: Adobe Illustrator 24.1.0, SVG Export Plug-In . SVG Version: 6.00 Build 0)  -->
<svg version="1.1" id="Layer_1" xmlns="http://www.w3.org/2000/svg" xmlns:xlink="http://www.w3.org/1999/xlink" x="0px" y="0px"
	 viewBox="0 0 24 24" style="enable-background:new 0 0 24 24;" xml:space="preserve">
<style type="text/css">
	.st0{fill:#013243;stroke:#013243;}
</style>
<path class="st0" d="M15,19l-6-2.1V5l6,2.1 M20.5,3c-0.1,0-0.1,0-0.2,0L15,5.1L9,3L3.4,4.9C3.2,5,3,5.2,3,5.4v15.1
	C3,20.8,3.2,21,3.5,21c0,0,0.1,0,0.2,0L9,18.9l6,2.1l5.6-1.9c0.2-0.1,0.4-0.3,0.4-0.5V3.5C21,3.2,20.8,3,20.5,3z"/>
</svg>
