<svg width="15" height="15" viewBox="0 0 15 15" fill="none" xmlns="http://www.w3.org/2000/svg">
<path d="M1.52884 2.1346C1.52884 1.81729 1.78845 1.55768 2.10576 1.55768H12.9086C13.226 1.55768 13.4856 1.81729 13.4856 2.1346V12.9375C13.4856 13.2548 13.226 13.5144 12.9086 13.5144H2.10576C1.78845 13.5144 1.52884 13.2548 1.52884 12.9375V2.1346Z" stroke="#013243"/>
<path d="M2.01923 7.54327H13.4711M7.5 2.0625V14.0192" stroke="#013243"/>
<path d="M11.9856 4.05289H9V5.04808H11.9856V4.05289Z" fill="#013243"/>
<path d="M11.9856 4.05289H9V5.04808H11.9856V4.05289Z" fill="#013243"/>
<path d="M11.9856 10.024H9V9.02884H11.9856V10.024ZM11.9856 11.0192H9V12.0144H11.9856C11.9856 12.0144 11.9856 11.0192 11.9856 11.0192Z" fill="#013243"/>
<path d="M11.9856 9.02884H9V10.024H11.9856V9.02884ZM11.9856 11.0192H9V12.0144H11.9856C11.9856 12.0144 11.9856 11.0192 11.9856 11.0192Z" fill="#013243"/>
<path d="M4.51442 3.54807V4.55768H5.50961H4.51442V5.55287V3.54807Z" fill="#013243"/>
<path d="M5.0048 3.05768H4.00961V4.05287H3.01442V5.04806H4.00961V6.04326H5.0048V5.04806H6V4.05287H5.0048V3.05768Z" fill="#013243"/>
<path d="M3.79885 10.5213L3.09515 11.225L3.79885 11.9287L4.50255 11.225L3.79885 10.5213Z" fill="#013243"/>
<path d="M5.21188 9.12781L4.50818 9.83151L5.21188 10.5352L5.91558 9.83151L5.21188 9.12781Z" fill="#013243"/>
<path d="M4.51443 9.82212L3.8077 9.11539L3.10097 9.82212L3.8077 10.5288L4.51443 11.2356L5.22116 11.9423L5.91347 11.2356L5.22116 10.5288L4.51443 9.82212Z" fill="#013243"/>
</svg>
