<svg xmlns="http://www.w3.org/2000/svg" viewBox="0 0 104 104"><rect x="4" y="4" width="96" height="96" fill="none" stroke="#000" stroke-miterlimit="10" stroke-width="8"/><path d="M8,52h92M52,8v96" fill="none" stroke="#000" stroke-miterlimit="10" stroke-width="8"/><rect x="64" y="24" width="24" height="8" fill="red"/><polygon points="88 24 64 24 64 32 88 32 88 24 88 24"/><path d="M88,72H64V64H88Zm0,8H64v8H88Z" fill="red"/><path d="M88,64H64v8H88V64Zm0,16H64v8H88V80Z"/><polygon points="28 20 28 28 36 28 28 28 28 36 28 20" fill="red"/><polygon points="32 16 24 16 24 24 16 24 16 32 24 32 24 40 32 40 32 32 40 32 40 24 32 24 32 16 32 16"/><rect x="18.34" y="77.66" width="8" height="8" transform="translate(-51.2 39.72) rotate(-45)"/><rect x="29.66" y="66.34" width="8" height="8" transform="translate(-39.88 44.4) rotate(-45)"/><polygon points="28 70.34 22.34 64.69 16.69 70.34 22.34 76 28 81.66 33.66 87.31 39.31 81.66 33.66 76 28 70.34"/></svg>