<?xml version="1.0" encoding="utf-8"?>
<!-- Generator: Adobe Illustrator 24.3.0, SVG Export Plug-In . SVG Version: 6.00 Build 0)  -->
<svg version="1.1" id="Layer_1" xmlns="http://www.w3.org/2000/svg" xmlns:xlink="http://www.w3.org/1999/xlink" x="0px" y="0px"
	 viewBox="0 0 104 104" style="enable-background:new 0 0 104 104;" xml:space="preserve">
<style type="text/css">
	.st0{fill:none;stroke:rgb(0,0,0);stroke-width:8;stroke-miterlimit:10;}
	.st1{fill:rgb(0,0,0);}
</style>
<g>
	<path class="st0" d="M10.6,14.8c0-2.2,1.8-4,4-4h74.9c2.2,0,4,1.8,4,4v74.9c0,2.2-1.8,4-4,4H14.6c-2.2,0-4-1.8-4-4V14.8z"/>
</g>
<path class="st0" d="M14,52.3h79.4 M52,14.3v82.9"/>
<rect x="62.4" y="28.1" class="st1" width="20.7" height="6.9"/>
<polygon points="83.1,28.1 62.4,28.1 62.4,35 83.1,35 "/>
<path class="st1" d="M83.1,69.5H62.4v-6.9h20.7C83.1,62.6,83.1,69.5,83.1,69.5z M83.1,76.4H62.4v6.9h20.7
	C83.1,83.3,83.1,76.4,83.1,76.4z"/>
<path d="M83.1,62.6H62.4v6.9h20.7C83.1,69.5,83.1,62.6,83.1,62.6z M83.1,76.4H62.4v6.9h20.7C83.1,83.3,83.1,76.4,83.1,76.4z"/>
<polygon class="st1" points="31.3,24.6 31.3,31.6 38.2,31.6 31.3,31.6 31.3,38.5 "/>
<polygon points="34.7,21.2 27.8,21.2 27.8,28.1 20.9,28.1 20.9,35 27.8,35 27.8,41.9 34.7,41.9 34.7,35 41.6,35 41.6,28.1 
	34.7,28.1 "/>
<rect x="22.9" y="74.4" transform="matrix(0.7071 -0.7071 0.7071 0.7071 -47.3411 41.4113)" width="6.9" height="6.9"/>
<rect x="32.7" y="64.7" transform="matrix(0.7071 -0.7071 0.7071 0.7071 -37.6148 45.538)" width="6.9" height="6.9"/>
<polygon points="31.3,68.1 26.4,63.2 21.5,68.1 26.4,73 31.3,77.9 36.2,82.8 41,77.9 36.2,73 "/>
</svg>
