<svg xmlns="http://www.w3.org/2000/svg" viewBox="0 0 104 104"><g opacity="0.96"><rect x="16" y="16" width="72" height="72" rx="5" fill="none" stroke="rgb(0,0,0)" stroke-miterlimit="10" stroke-width="8"/></g><rect x="36" y="36" width="32" height="32"/><path style="stroke:rgb(0,0,0)" d="M68,44V68H44V44H68m6-8H38a2,2,0,0,0-2,2V74a2,2,0,0,0,2,2H74a2,2,0,0,0,2-2V38a2,2,0,0,0-2-2Z" transform="translate(-4 -4)"/><path style="stroke:rgb(0,0,0)" d="M74,4H70a2,2,0,0,0-2,2V18a2,2,0,0,0,2,2h4a2,2,0,0,0,2-2V6a2,2,0,0,0-2-2ZM58,4H54a2,2,0,0,0-2,2V18a2,2,0,0,0,2,2h4a2,2,0,0,0,2-2V6a2,2,0,0,0-2-2ZM42,4H38a2,2,0,0,0-2,2V18a2,2,0,0,0,2,2h4a2,2,0,0,0,2-2V6a2,2,0,0,0-2-2Z" transform="translate(-4 -4)"/><path style="stroke:rgb(0,0,0)" d="M18,36H6a2,2,0,0,0-2,2v4a2,2,0,0,0,2,2H18a2,2,0,0,0,2-2V38a2,2,0,0,0-2-2Zm0,16H6a2,2,0,0,0-2,2v4a2,2,0,0,0,2,2H18a2,2,0,0,0,2-2V54a2,2,0,0,0-2-2Zm0,16H6a2,2,0,0,0-2,2v4a2,2,0,0,0,2,2H18a2,2,0,0,0,2-2V70a2,2,0,0,0-2-2Z" transform="translate(-4 -4)"/><path style="stroke:rgb(0,0,0)" d="M106,36H94a2,2,0,0,0-2,2v4a2,2,0,0,0,2,2h12a2,2,0,0,0,2-2V38a2,2,0,0,0-2-2Zm0,16H94a2,2,0,0,0-2,2v4a2,2,0,0,0,2,2h12a2,2,0,0,0,2-2V54a2,2,0,0,0-2-2Zm0,16H94a2,2,0,0,0-2,2v4a2,2,0,0,0,2,2h12a2,2,0,0,0,2-2V70a2,2,0,0,0-2-2Z" transform="translate(-4 -4)"/><path style="stroke:rgb(0,0,0)" d="M74,92H70a2,2,0,0,0-2,2v12a2,2,0,0,0,2,2h4a2,2,0,0,0,2-2V94a2,2,0,0,0-2-2ZM58,92H54a2,2,0,0,0-2,2v12a2,2,0,0,0,2,2h4a2,2,0,0,0,2-2V94a2,2,0,0,0-2-2ZM42,92H38a2,2,0,0,0-2,2v12a2,2,0,0,0,2,2h4a2,2,0,0,0,2-2V94a2,2,0,0,0-2-2Z" transform="translate(-4 -4)"/></svg>