<svg width="104" height="104" viewBox="0 0 104 104" fill="none" xmlns="http://www.w3.org/2000/svg">
<g clip-path="url(#clip0_1_31)">
<g opacity="0.96">
<path d="M83 16H21C18.2386 16 16 18.2386 16 21V83C16 85.7614 18.2386 88 21 88H83C85.7614 88 88 85.7614 88 83V21C88 18.2386 85.7614 16 83 16Z" stroke="#013243" stroke-width="8" stroke-miterlimit="10"/>
</g>
<path d="M68 36H36V68H68V36Z" fill="#013243"/>
<path d="M64 40V64H40V40H64ZM70 32H34C33.4696 32 32.9609 32.2107 32.5858 32.5858C32.2107 32.9609 32 33.4696 32 34V70C32 70.5304 32.2107 71.0391 32.5858 71.4142C32.9609 71.7893 33.4696 72 34 72H70C70.5304 72 71.0391 71.7893 71.4142 71.4142C71.7893 71.0391 72 70.5304 72 70V34C72 33.4696 71.7893 32.9609 71.4142 32.5858C71.0391 32.2107 70.5304 32 70 32Z" fill="#013243" stroke="#013243"/>
<path d="M70 0H66C65.4696 0 64.9609 0.210714 64.5858 0.585786C64.2107 0.960859 64 1.46957 64 2V14C64 14.5304 64.2107 15.0391 64.5858 15.4142C64.9609 15.7893 65.4696 16 66 16H70C70.5304 16 71.0391 15.7893 71.4142 15.4142C71.7893 15.0391 72 14.5304 72 14V2C72 1.46957 71.7893 0.960859 71.4142 0.585786C71.0391 0.210714 70.5304 0 70 0V0ZM54 0H50C49.4696 0 48.9609 0.210714 48.5858 0.585786C48.2107 0.960859 48 1.46957 48 2V14C48 14.5304 48.2107 15.0391 48.5858 15.4142C48.9609 15.7893 49.4696 16 50 16H54C54.5304 16 55.0391 15.7893 55.4142 15.4142C55.7893 15.0391 56 14.5304 56 14V2C56 1.46957 55.7893 0.960859 55.4142 0.585786C55.0391 0.210714 54.5304 0 54 0V0ZM38 0H34C33.4696 0 32.9609 0.210714 32.5858 0.585786C32.2107 0.960859 32 1.46957 32 2V14C32 14.5304 32.2107 15.0391 32.5858 15.4142C32.9609 15.7893 33.4696 16 34 16H38C38.5304 16 39.0391 15.7893 39.4142 15.4142C39.7893 15.0391 40 14.5304 40 14V2C40 1.46957 39.7893 0.960859 39.4142 0.585786C39.0391 0.210714 38.5304 0 38 0V0Z" fill="#013243" stroke="#013243"/>
<path d="M14 32H2C1.46957 32 0.960859 32.2107 0.585786 32.5858C0.210714 32.9609 0 33.4696 0 34V38C0 38.5304 0.210714 39.0391 0.585786 39.4142C0.960859 39.7893 1.46957 40 2 40H14C14.5304 40 15.0391 39.7893 15.4142 39.4142C15.7893 39.0391 16 38.5304 16 38V34C16 33.4696 15.7893 32.9609 15.4142 32.5858C15.0391 32.2107 14.5304 32 14 32ZM14 48H2C1.46957 48 0.960859 48.2107 0.585786 48.5858C0.210714 48.9609 0 49.4696 0 50V54C0 54.5304 0.210714 55.0391 0.585786 55.4142C0.960859 55.7893 1.46957 56 2 56H14C14.5304 56 15.0391 55.7893 15.4142 55.4142C15.7893 55.0391 16 54.5304 16 54V50C16 49.4696 15.7893 48.9609 15.4142 48.5858C15.0391 48.2107 14.5304 48 14 48ZM14 64H2C1.46957 64 0.960859 64.2107 0.585786 64.5858C0.210714 64.9609 0 65.4696 0 66V70C0 70.5304 0.210714 71.0391 0.585786 71.4142C0.960859 71.7893 1.46957 72 2 72H14C14.5304 72 15.0391 71.7893 15.4142 71.4142C15.7893 71.0391 16 70.5304 16 70V66C16 65.4696 15.7893 64.9609 15.4142 64.5858C15.0391 64.2107 14.5304 64 14 64Z" fill="#013243" stroke="#013243"/>
<path d="M102 32H90C89.4696 32 88.9609 32.2107 88.5858 32.5858C88.2107 32.9609 88 33.4696 88 34V38C88 38.5304 88.2107 39.0391 88.5858 39.4142C88.9609 39.7893 89.4696 40 90 40H102C102.53 40 103.039 39.7893 103.414 39.4142C103.789 39.0391 104 38.5304 104 38V34C104 33.4696 103.789 32.9609 103.414 32.5858C103.039 32.2107 102.53 32 102 32ZM102 48H90C89.4696 48 88.9609 48.2107 88.5858 48.5858C88.2107 48.9609 88 49.4696 88 50V54C88 54.5304 88.2107 55.0391 88.5858 55.4142C88.9609 55.7893 89.4696 56 90 56H102C102.53 56 103.039 55.7893 103.414 55.4142C103.789 55.0391 104 54.5304 104 54V50C104 49.4696 103.789 48.9609 103.414 48.5858C103.039 48.2107 102.53 48 102 48ZM102 64H90C89.4696 64 88.9609 64.2107 88.5858 64.5858C88.2107 64.9609 88 65.4696 88 66V70C88 70.5304 88.2107 71.0391 88.5858 71.4142C88.9609 71.7893 89.4696 72 90 72H102C102.53 72 103.039 71.7893 103.414 71.4142C103.789 71.0391 104 70.5304 104 70V66C104 65.4696 103.789 64.9609 103.414 64.5858C103.039 64.2107 102.53 64 102 64Z" fill="#013243" stroke="#013243"/>
<path d="M70 88H66C65.4696 88 64.9609 88.2107 64.5858 88.5858C64.2107 88.9609 64 89.4696 64 90V102C64 102.53 64.2107 103.039 64.5858 103.414C64.9609 103.789 65.4696 104 66 104H70C70.5304 104 71.0391 103.789 71.4142 103.414C71.7893 103.039 72 102.53 72 102V90C72 89.4696 71.7893 88.9609 71.4142 88.5858C71.0391 88.2107 70.5304 88 70 88ZM54 88H50C49.4696 88 48.9609 88.2107 48.5858 88.5858C48.2107 88.9609 48 89.4696 48 90V102C48 102.53 48.2107 103.039 48.5858 103.414C48.9609 103.789 49.4696 104 50 104H54C54.5304 104 55.0391 103.789 55.4142 103.414C55.7893 103.039 56 102.53 56 102V90C56 89.4696 55.7893 88.9609 55.4142 88.5858C55.0391 88.2107 54.5304 88 54 88ZM38 88H34C33.4696 88 32.9609 88.2107 32.5858 88.5858C32.2107 88.9609 32 89.4696 32 90V102C32 102.53 32.2107 103.039 32.5858 103.414C32.9609 103.789 33.4696 104 34 104H38C38.5304 104 39.0391 103.789 39.4142 103.414C39.7893 103.039 40 102.53 40 102V90C40 89.4696 39.7893 88.9609 39.4142 88.5858C39.0391 88.2107 38.5304 88 38 88Z" fill="#013243" stroke="#013243"/>
</g>
<defs>
<clipPath id="clip0_1_31">
<rect width="104" height="104" fill="white"/>
</clipPath>
</defs>
</svg>
