<?xml version="1.0" encoding="utf-8"?>
<!-- Generator: Adobe Illustrator 24.1.0, SVG Export Plug-In . SVG Version: 6.00 Build 0)  -->
<svg version="1.1" id="Layer_1" xmlns="http://www.w3.org/2000/svg" xmlns:xlink="http://www.w3.org/1999/xlink" x="0px" y="0px"
	 viewBox="0 0 104 104" style="enable-background:new 0 0 104 104;" xml:space="preserve">
<style type="text/css">
	.st0{opacity:0.96;}
	.st1{fill:none;stroke:#013243;stroke-width:8;stroke-miterlimit:10;}
	.st2{fill:#013243;}
	.st3{fill:#013243;stroke:#013243;}
</style>
<g class="st0">
	<path class="st1" d="M21,16h62c2.8,0,5,2.2,5,5v62c0,2.8-2.2,5-5,5H21c-2.8,0-5-2.2-5-5V21C16,18.2,18.2,16,21,16z"/>
</g>
<rect x="36" y="36" class="st2" width="32" height="32"/>
<path class="st3" d="M64,40v24H40V40H64 M70,32H34c-1.1,0-2,0.9-2,2v36c0,1.1,0.9,2,2,2h36c1.1,0,2-0.9,2-2V34
	C72,32.9,71.1,32,70,32z"/>
<path class="st3" d="M70,0h-4c-1.1,0-2,0.9-2,2v12c0,1.1,0.9,2,2,2h4c1.1,0,2-0.9,2-2V2C72,0.9,71.1,0,70,0z M54,0h-4
	c-1.1,0-2,0.9-2,2v12c0,1.1,0.9,2,2,2h4c1.1,0,2-0.9,2-2V2C56,0.9,55.1,0,54,0z M38,0h-4c-1.1,0-2,0.9-2,2v12c0,1.1,0.9,2,2,2h4
	c1.1,0,2-0.9,2-2V2C40,0.9,39.1,0,38,0z"/>
<path class="st3" d="M14,32H2c-1.1,0-2,0.9-2,2v4c0,1.1,0.9,2,2,2h12c1.1,0,2-0.9,2-2v-4C16,32.9,15.1,32,14,32z M14,48H2
	c-1.1,0-2,0.9-2,2v4c0,1.1,0.9,2,2,2h12c1.1,0,2-0.9,2-2v-4C16,48.9,15.1,48,14,48z M14,64H2c-1.1,0-2,0.9-2,2v4c0,1.1,0.9,2,2,2h12
	c1.1,0,2-0.9,2-2v-4C16,64.9,15.1,64,14,64z"/>
<path class="st3" d="M102,32H90c-1.1,0-2,0.9-2,2v4c0,1.1,0.9,2,2,2h12c1.1,0,2-0.9,2-2v-4C104,32.9,103.1,32,102,32z M102,48H90
	c-1.1,0-2,0.9-2,2v4c0,1.1,0.9,2,2,2h12c1.1,0,2-0.9,2-2v-4C104,48.9,103.1,48,102,48z M102,64H90c-1.1,0-2,0.9-2,2v4
	c0,1.1,0.9,2,2,2h12c1.1,0,2-0.9,2-2v-4C104,64.9,103.1,64,102,64z"/>
<path class="st3" d="M70,88h-4c-1.1,0-2,0.9-2,2v12c0,1.1,0.9,2,2,2h4c1.1,0,2-0.9,2-2V90C72,88.9,71.1,88,70,88z M54,88h-4
	c-1.1,0-2,0.9-2,2v12c0,1.1,0.9,2,2,2h4c1.1,0,2-0.9,2-2V90C56,88.9,55.1,88,54,88z M38,88h-4c-1.1,0-2,0.9-2,2v12c0,1.1,0.9,2,2,2
	h4c1.1,0,2-0.9,2-2V90C40,88.9,39.1,88,38,88z"/>
</svg>
