<?xml version="1.0" encoding="utf-8"?>
<!-- Generator: Adobe Illustrator 24.1.0, SVG Export Plug-In . SVG Version: 6.00 Build 0)  -->
<svg version="1.1" id="Layer_1" xmlns="http://www.w3.org/2000/svg" xmlns:xlink="http://www.w3.org/1999/xlink" x="0px" y="0px"
	 viewBox="0 0 92 80" style="enable-background:new 0 0 92 80;" xml:space="preserve">
<style type="text/css">
	.st0{fill:none;stroke:#013243;stroke-width:8;stroke-miterlimit:10;}
	.st1{fill:#013243;stroke:#013243;}
	.st2{fill:#013243;stroke:#013243;stroke-miterlimit:10;}
	.st3{fill:#013243;}
</style>
<path class="st0" d="M9,4h62c2.8,0,5,2.2,5,5v62c0,2.8-2.2,5-5,5H9c-2.8,0-5-2.2-5-5V9C4,6.2,6.2,4,9,4z"/>
<path class="st1" d="M78,28c-1.1,0-2-0.9-2-2v-4c0-1.1,0.9-2,2-2h12c1.1,0,2,0.9,2,2v4c0,1.1-0.9,2-2,2H78z M90,44c1.1,0,2-0.9,2-2
	v-4c0-1.1-0.9-2-2-2H78c-1.1,0-2,0.9-2,2v4c0,1.1,0.9,2,2,2H90z M90,60c1.1,0,2-0.9,2-2v-4c0-1.1-0.9-2-2-2H78c-1.1,0-2,0.9-2,2v4
	c0,1.1,0.9,2,2,2H90z"/>
<rect x="16" y="16" class="st2" width="20" height="20"/>
<rect x="16" y="44" class="st3" width="20" height="20"/>
<rect x="44" y="16" class="st2" width="20" height="12"/>
<rect x="44" y="36" class="st2" width="20" height="28"/>
</svg>
