<svg xmlns="http://www.w3.org/2000/svg" viewBox="0 0 92 80"><rect x="4" y="4" width="72" height="72" rx="5" fill="none" stroke="rgb(0,0,0)" stroke-miterlimit="10" stroke-width="8"/><path style="stroke:rgb(0,0,0)" d="M78,28a2,2,0,0,1-2-2V22a2,2,0,0,1,2-2H90a2,2,0,0,1,2,2v4a2,2,0,0,1-2,2ZM90,44a2,2,0,0,0,2-2V38a2,2,0,0,0-2-2H78a2,2,0,0,0-2,2v4a2,2,0,0,0,2,2Zm0,16a2,2,0,0,0,2-2V54a2,2,0,0,0-2-2H78a2,2,0,0,0-2,2v4a2,2,0,0,0,2,2Z"/><rect x="16" y="16" width="20" height="20"/><rect x="16" y="44" width="20" height="20"/><rect x="44" y="16" width="20" height="12"/><rect x="44" y="36" width="20" height="28" /></svg>