<svg width="92" height="80" viewBox="0 0 92 80" fill="none" xmlns="http://www.w3.org/2000/svg">
<g clip-path="url(#clip0_1_40)">
<path d="M71 4H9C6.23858 4 4 6.23858 4 9V71C4 73.7614 6.23858 76 9 76H71C73.7614 76 76 73.7614 76 71V9C76 6.23858 73.7614 4 71 4Z" stroke="#013243" stroke-width="8" stroke-miterlimit="10"/>
<path d="M78 28C77.4696 28 76.9609 27.7893 76.5858 27.4142C76.2107 27.0391 76 26.5304 76 26V22C76 21.4696 76.2107 20.9609 76.5858 20.5858C76.9609 20.2107 77.4696 20 78 20H90C90.5304 20 91.0391 20.2107 91.4142 20.5858C91.7893 20.9609 92 21.4696 92 22V26C92 26.5304 91.7893 27.0391 91.4142 27.4142C91.0391 27.7893 90.5304 28 90 28H78ZM90 44C90.5304 44 91.0391 43.7893 91.4142 43.4142C91.7893 43.0391 92 42.5304 92 42V38C92 37.4696 91.7893 36.9609 91.4142 36.5858C91.0391 36.2107 90.5304 36 90 36H78C77.4696 36 76.9609 36.2107 76.5858 36.5858C76.2107 36.9609 76 37.4696 76 38V42C76 42.5304 76.2107 43.0391 76.5858 43.4142C76.9609 43.7893 77.4696 44 78 44H90ZM90 60C90.5304 60 91.0391 59.7893 91.4142 59.4142C91.7893 59.0391 92 58.5304 92 58V54C92 53.4696 91.7893 52.9609 91.4142 52.5858C91.0391 52.2107 90.5304 52 90 52H78C77.4696 52 76.9609 52.2107 76.5858 52.5858C76.2107 52.9609 76 53.4696 76 54V58C76 58.5304 76.2107 59.0391 76.5858 59.4142C76.9609 59.7893 77.4696 60 78 60H90Z" fill="#013243" stroke="#013243"/>
<path d="M36 16H16V36H36V16Z" fill="#013243"/>
<path d="M36 44H16V64H36V44Z" fill="#013243"/>
<path d="M64 16H44V28H64V16Z" fill="#013243"/>
<path d="M64 36H44V64H64V36Z" fill="#013243"/>
</g>
<defs>
<clipPath id="clip0_1_40">
<rect width="92" height="80" fill="white"/>
</clipPath>
</defs>
</svg>
