<?xml version="1.0" encoding="utf-8"?>
<svg viewBox="150.496 176.575 160 120" xmlns="http://www.w3.org/2000/svg">
  <rect x="0" y="0" width="160" height="120" style="fill:rgb(100%,100%,100%);fill-opacity:1;stroke:none;" transform="matrix(1, 0, 0, 1, 150.496447, 176.575473)"/>
  <path style="fill: none; stroke-linecap: round; stroke-linejoin: round; stroke: rgb(0, 0, 0); stroke-opacity: 1; stroke-miterlimit: 4; stroke-width: 28.8px;" d="M 107.178742 272.835005 C 92.351241 206.145004 77.534991 139.455002 62.718741 72.753751 " transform="matrix(0.347222, 0, 0, 0.347222, 150.496447, 176.575473)"/>
  <path style="fill: none; stroke-linecap: round; stroke-linejoin: round; stroke: rgb(0, 0, 0); stroke-opacity: 1; stroke-miterlimit: 4; stroke-width: 28.8px;" d="M 133.548742 278.831255 C 159.333743 245.958754 185.107493 213.097504 210.881244 180.225003 " transform="matrix(0.347222, 0, 0, 0.347222, 150.496447, 176.575473)"/>
  <path style="fill: none; stroke-linecap: round; stroke-linejoin: round; stroke: rgb(0, 0, 0); stroke-opacity: 1; stroke-miterlimit: 4; stroke-width: 28.8px;" d="M 145.529992 300.870005 C 221.501244 294.041255 297.472495 287.201255 373.443746 280.361255 " transform="matrix(0.347222, 0, 0, 0.347222, 150.496447, 176.575473)"/>
  <path style="fill: none; stroke-linecap: round; stroke-linejoin: round; stroke: rgb(0, 0, 0); stroke-opacity: 1; stroke-miterlimit: 4; stroke-width: 28.8px;" d="M 82.372491 59.130001 C 122.872492 85.455002 163.383743 111.780002 203.883743 138.105002 " transform="matrix(0.347222, 0, 0, 0.347222, 150.496447, 176.575473)"/>
  <path style="fill: none; stroke-linecap: round; stroke-linejoin: round; stroke: rgb(0, 0, 0); stroke-opacity: 1; stroke-miterlimit: 4; stroke-width: 28.8px;" d="M 257.062494 138.341252 C 278.077495 124.953752 299.092495 111.555002 320.096245 98.167502 " transform="matrix(0.347222, 0, 0, 0.347222, 150.496447, 176.575473)"/>
  <path style="fill: none; stroke-linecap: round; stroke-linejoin: round; stroke: rgb(0, 0, 0); stroke-opacity: 1; stroke-miterlimit: 4; stroke-width: 28.8px;" d="M 395.966247 247.207504 C 382.556247 201.971254 369.157496 156.723753 355.747496 111.487502 " transform="matrix(0.347222, 0, 0, 0.347222, 150.496447, 176.575473)"/>
  <path style="fill-rule: nonzero; fill: rgb(255, 255, 255); fill-opacity: 1; stroke-linecap: butt; stroke-linejoin: round; stroke: rgb(0, 0, 0); stroke-opacity: 1; stroke-miterlimit: 4; stroke-width: 28.8px;" d="M 0.00488015 31.61968 C 8.38613 31.61968 16.42988 28.28968 22.358631 22.36093 C 28.287381 16.43218 31.617381 8.38843 31.617381 -0.00407056 C 31.617381 -8.385321 28.287381 -16.429071 22.358631 -22.357821 C 16.42988 -28.286571 8.38613 -31.627821 0.00488015 -31.627821 C -8.38762 -31.627821 -16.43137 -28.286571 -22.36012 -22.357821 C -28.28887 -16.429071 -31.61887 -8.385321 -31.61887 -0.00407056 C -31.61887 8.38843 -28.28887 16.43218 -22.36012 22.36093 C -16.43137 28.28968 -8.38762 31.61968 0.00488015 31.61968 Z M 0.00488015 31.61968 " transform="matrix(0.347222, 0, 0, 0.347222, 190.09241, 282.030033)"/>
  <path style="fill-rule: nonzero; fill: rgb(255, 255, 255); fill-opacity: 1; stroke-linecap: butt; stroke-linejoin: round; stroke: rgb(0, 0, 0); stroke-opacity: 1; stroke-miterlimit: 4; stroke-width: 28.8px;" d="M 0.00169522 31.627844 C 8.382945 31.627844 16.426696 28.286594 22.355446 22.357844 C 28.295446 16.429094 31.625446 8.385344 31.625446 0.00409345 C 31.625446 -8.388407 28.295446 -16.432157 22.355446 -22.360907 C 16.426696 -28.289657 8.382945 -31.619657 0.00169522 -31.619657 C -8.390805 -31.619657 -16.434555 -28.289657 -22.363305 -22.360907 C -28.292055 -16.432157 -31.622055 -8.388407 -31.622055 0.00409345 C -31.622055 8.385344 -28.292055 16.429094 -22.363305 22.357844 C -16.434555 28.286594 -8.390805 31.627844 0.00169522 31.627844 Z M 0.00169522 31.627844 " transform="matrix(0.347222, 0, 0, 0.347222, 169.890399, 191.120929)"/>
  <path style="fill-rule: nonzero; fill: rgb(255, 255, 255); fill-opacity: 1; stroke-linecap: butt; stroke-linejoin: round; stroke: rgb(0, 0, 0); stroke-opacity: 1; stroke-miterlimit: 4; stroke-width: 28.8px;" d="M 0 31.618294 C 8.38125 31.618294 16.425 28.288294 22.365 22.359544 C 28.29375 16.430794 31.623751 8.387044 31.623751 -0.00545624 C 31.623751 -8.386706 28.29375 -16.430457 22.365 -22.359207 C 16.425 -28.287957 8.38125 -31.617957 0 -31.617957 C -8.38125 -31.617957 -16.425 -28.287957 -22.365 -22.359207 C -28.29375 -16.430457 -31.623751 -8.386706 -31.623751 -0.00545624 C -31.623751 8.387044 -28.29375 16.430794 -22.365 22.359544 C -16.425 28.288294 -8.38125 31.618294 0 31.618294 Z M 0 31.618294 " transform="matrix(0.347222, 0, 0, 0.347222, 230.496448, 230.514896)"/>
  <path style="fill-rule: nonzero; fill: rgb(255, 255, 255); fill-opacity: 1; stroke-linecap: butt; stroke-linejoin: round; stroke: rgb(0, 0, 0); stroke-opacity: 1; stroke-miterlimit: 4; stroke-width: 28.8px;" d="M -0.00171811 31.622723 C 8.390782 31.622723 16.434532 28.292723 22.363282 22.363973 C 28.292032 16.435222 31.622032 8.391472 31.622032 -0.00102781 C 31.622032 -8.382278 28.292032 -16.426028 22.363282 -22.366028 C 16.434532 -28.294778 8.390782 -31.624778 -0.00171811 -31.624778 C -8.382968 -31.624778 -16.426718 -28.294778 -22.355469 -22.366028 C -28.295469 -16.426028 -31.625469 -8.382278 -31.625469 -0.00102781 C -31.625469 8.391472 -28.295469 16.435222 -22.355469 22.363973 C -16.426718 28.292723 -8.382968 31.622723 -0.00171811 31.622723 Z M -0.00171811 31.622723 " transform="matrix(0.347222, 0, 0, 0.347222, 291.102513, 272.939121)"/>
  <path style="fill-rule: nonzero; fill: rgb(255, 255, 255); fill-opacity: 1; stroke-linecap: butt; stroke-linejoin: round; stroke: rgb(0, 0, 0); stroke-opacity: 1; stroke-miterlimit: 4; stroke-width: 28.8px;" d="M -0.00489541 31.617617 C 8.387605 31.617617 16.431355 28.287617 22.360105 22.358867 C 28.288855 16.430116 31.618855 8.386366 31.618855 0.00511618 C 31.618855 -8.387384 28.288855 -16.431134 22.360105 -22.359884 C 16.431355 -28.288634 8.387605 -31.618634 -0.00489541 -31.618634 C -8.386146 -31.618634 -16.429896 -28.288634 -22.358646 -22.359884 C -28.287396 -16.431134 -31.617396 -8.387384 -31.617396 0.00511618 C -31.617396 8.386366 -28.287396 16.430116 -22.358646 22.358867 C -16.429896 28.287617 -8.386146 31.617617 -0.00489541 31.617617 Z M -0.00489541 31.617617 " transform="matrix(0.347222, 0, 0, 0.347222, 270.900486, 204.757297)"/>
</svg>