<svg xmlns:dc="http://purl.org/dc/elements/1.1/" xmlns:cc="http://creativecommons.org/ns#" xmlns:rdf="http://www.w3.org/1999/02/22-rdf-syntax-ns#" xmlns:svg="http://www.w3.org/2000/svg" xmlns="http://www.w3.org/2000/svg" xmlns:sodipodi="http://sodipodi.sourceforge.net/DTD/sodipodi-0.dtd" xmlns:inkscape="http://www.inkscape.org/namespaces/inkscape" width="160" height="120" viewBox="0 0 160 120" fill="none" id="svg33" sodipodi:docname="sd6.svg" inkscape:version="1.0.2 (e86c870879, 2021-01-15)"><sodipodi:namedview pagecolor="#ffffff" bordercolor="#666666" borderopacity="1" objecttolerance="10" gridtolerance="10" guidetolerance="10" inkscape:pageopacity="0" inkscape:pageshadow="2" inkscape:window-width="1920" inkscape:window-height="1154" id="namedview35" showgrid="false" inkscape:zoom="5.6666667" inkscape:cx="80" inkscape:cy="60" inkscape:window-x="1920" inkscape:window-y="22" inkscape:window-maximized="1" inkscape:current-layer="svg33"/><g id="g909"><path d="M37.2153 94.7348c-5.1485-23.1563-10.293-46.3125-15.4375-69.4726" stroke="#013243" stroke-width="9.99999" stroke-linecap="round" stroke-linejoin="round" id="path4"/><path d="M46.3715 96.8168c8.9531-11.414 17.9023-22.8242 26.8516-34.2382" stroke="#013243" stroke-width="9.99999" stroke-linecap="round" stroke-linejoin="round" id="path6"/><path d="m50.5317 104.469c26.3789-2.371 52.7573-4.7459 79.1363-7.1209" stroke="#013243" stroke-width="9.99999" stroke-linecap="round" stroke-linejoin="round" id="path8"/><path d="m28.602 20.5317c14.0625 9.1406 28.1289 18.2812 42.1914 27.4219" stroke="#013243" stroke-width="9.99999" stroke-linecap="round" stroke-linejoin="round" id="path10"/><path d="M89.2582 48.0356C96.5551 43.3872 103.852 38.7348 111.145 34.0864" stroke="#013243" stroke-width="9.99999" stroke-linecap="round" stroke-linejoin="round" id="path12"/><path d="M137.489 85.8364C132.832 70.1293 128.18 54.4184 123.524 38.7114" stroke="#013243" stroke-width="9.99999" stroke-linecap="round" stroke-linejoin="round" id="path14"/><path d="m39.5981 116.434c2.9102.0 5.7031-1.156 7.7617-3.215 2.0586-2.058 3.2149-4.851 3.2149-7.765.0-2.911-1.1563-5.7035-3.2149-7.7621s-4.8515-3.2188-7.7617-3.2188c-2.9141.0-5.707 1.1602-7.7656 3.2188s-3.2149 4.8511-3.2149 7.7621c0 2.914 1.1563 5.707 3.2149 7.765 2.0586 2.059 4.8515 3.215 7.7656 3.215z" fill="#fff" stroke="#013243" stroke-width="9.99999" stroke-linejoin="round" id="path16" style="fill:none"/><path d="m19.395 25.5278c2.9101.0 5.7031-1.1601 7.7617-3.2187 2.0625-2.0586 3.2187-4.8516 3.2187-7.7617.0-2.9141-1.1562-5.70707-3.2187-7.76566-2.0586-2.0586-4.8516-3.21485-7.7617-3.21485-2.9141.0-5.707 1.15625-7.7656 3.21485-2.05863 2.05859-3.21488 4.85156-3.21488 7.76566.0 2.9101 1.15625 5.7031 3.21488 7.7617 2.0586 2.0586 4.8515 3.2187 7.7656 3.2187z" fill="#fff" stroke="#013243" stroke-width="9.99999" stroke-linejoin="round" id="path18" style="fill:none"/><path d="m80.0005 64.9185c2.9101.0 5.7031-1.1563 7.7656-3.2149 2.0586-2.0586 3.2148-4.8515 3.2148-7.7656.0-2.9101-1.1562-5.7031-3.2148-7.7617-2.0625-2.0586-4.8555-3.2148-7.7656-3.2148-2.9102.0-5.7032 1.1562-7.7657 3.2148-2.0586 2.0586-3.2148 4.8516-3.2148 7.7617.0 2.9141 1.1562 5.707 3.2148 7.7656 2.0625 2.0586 4.8555 3.2149 7.7657 3.2149z" fill="#fff" stroke="#013243" stroke-width="9.99999" stroke-linejoin="round" id="path20" style="fill:none"/><path d="m140.606 107.344c2.914.0 5.707-1.156 7.766-3.215 2.058-2.058 3.214-4.8512 3.214-7.7652.0-2.9102-1.156-5.7032-3.214-7.7657-2.059-2.0585-4.852-3.2148-7.766-3.2148-2.91.0-5.703 1.1563-7.762 3.2148-2.062 2.0625-3.219 4.8555-3.219 7.7657.0 2.914 1.157 5.7072 3.219 7.7652 2.059 2.059 4.852 3.215 7.762 3.215z" fill="#fff" stroke="#013243" stroke-width="9.99999" stroke-linejoin="round" id="path22" style="fill:none"/><path d="m120.403 39.1606c2.914.0 5.707-1.1562 7.765-3.2148 2.059-2.0586 3.215-4.8516 3.215-7.7617.0-2.9141-1.156-5.7071-3.215-7.7656-2.058-2.0586-4.851-3.2149-7.765-3.2149-2.91.0-5.703 1.1563-7.762 3.2149-2.059 2.0585-3.215 4.8515-3.215 7.7656.0 2.9101 1.156 5.7031 3.215 7.7617s4.852 3.2148 7.762 3.2148z" fill="#fff" stroke="#013243" stroke-width="9.99999" stroke-linejoin="round" id="path24" style="fill:none"/></g><defs id="defs31"/></svg>