<?xml version="1.0" encoding="utf-8"?>
<!-- Generator: Adobe Illustrator 24.1.0, SVG Export Plug-In . SVG Version: 6.00 Build 0)  -->
<svg version="1.1" id="Layer_1" xmlns="http://www.w3.org/2000/svg" xmlns:xlink="http://www.w3.org/1999/xlink" x="0px" y="0px"
	 viewBox="0 0 160 120" style="enable-background:new 0 0 160 120;" xml:space="preserve">
<style type="text/css">
	.st0{fill:#FFFFFF;stroke:#013243;stroke-miterlimit:10;}
	.st1{fill:none;stroke:#013243;stroke-width:10;stroke-linecap:round;stroke-linejoin:round;stroke-miterlimit:1.3889;}
	.st2{fill:#FFFFFF;stroke:#013243;stroke-width:10;stroke-linejoin:round;stroke-miterlimit:1.3889;}
</style>
<rect x="0" y="0" class="st0" width="160" height="120"/>
<path class="st1" d="M37.2,94.7c-5.1-23.2-10.3-46.3-15.4-69.5"/>
<path class="st1" d="M46.4,96.8c9-11.4,17.9-22.8,26.9-34.2"/>
<path class="st1" d="M50.5,104.5c26.4-2.4,52.8-4.7,79.1-7.1"/>
<path class="st1" d="M28.6,20.5C42.7,29.7,56.7,38.8,70.8,48"/>
<path class="st1" d="M89.3,48c7.3-4.6,14.6-9.3,21.9-13.9"/>
<path class="st1" d="M137.5,85.8c-4.7-15.7-9.3-31.4-14-47.1"/>
<path class="st2" d="M39.6,116.4c2.9,0,5.7-1.2,7.8-3.2s3.2-4.9,3.2-7.8c0-2.9-1.2-5.7-3.2-7.8c-2.1-2.1-4.9-3.2-7.8-3.2
	c-2.9,0-5.7,1.2-7.8,3.2c-2.1,2.1-3.2,4.9-3.2,7.8c0,2.9,1.2,5.7,3.2,7.8S36.7,116.4,39.6,116.4z"/>
<path class="st2" d="M19.4,25.5c2.9,0,5.7-1.2,7.8-3.2c2.1-2.1,3.2-4.9,3.2-7.8c0-2.9-1.2-5.7-3.2-7.8c-2.1-2.1-4.9-3.2-7.8-3.2
	c-2.9,0-5.7,1.2-7.8,3.2s-3.2,4.9-3.2,7.8c0,2.9,1.2,5.7,3.2,7.8S16.5,25.5,19.4,25.5z"/>
<path class="st2" d="M80,64.9c2.9,0,5.7-1.2,7.8-3.2c2.1-2.1,3.2-4.9,3.2-7.8c0-2.9-1.2-5.7-3.2-7.8C85.7,44.1,82.9,43,80,43
	s-5.7,1.2-7.8,3.2C70.2,48.2,69,51,69,53.9c0,2.9,1.2,5.7,3.2,7.8C74.3,63.8,77.1,64.9,80,64.9z"/>
<path class="st2" d="M140.6,107.3c2.9,0,5.7-1.2,7.8-3.2c2.1-2.1,3.2-4.9,3.2-7.8c0-2.9-1.2-5.7-3.2-7.8c-2.1-2.1-4.9-3.2-7.8-3.2
	c-2.9,0-5.7,1.2-7.8,3.2c-2.1,2.1-3.2,4.9-3.2,7.8c0,2.9,1.2,5.7,3.2,7.8C134.9,106.2,137.7,107.3,140.6,107.3z"/>
<path class="st2" d="M120.4,39.2c2.9,0,5.7-1.2,7.8-3.2c2.1-2.1,3.2-4.9,3.2-7.8c0-2.9-1.2-5.7-3.2-7.8c-2.1-2.1-4.9-3.2-7.8-3.2
	c-2.9,0-5.7,1.2-7.8,3.2s-3.2,4.9-3.2,7.8c0,2.9,1.2,5.7,3.2,7.8C114.7,38,117.5,39.2,120.4,39.2z"/>
</svg>
