<?xml version="1.0" encoding="utf-8"?>
<!-- Generator: Adobe Illustrator 24.1.0, SVG Export Plug-In . SVG Version: 6.00 Build 0)  -->
<svg version="1.1" id="Layer_1" xmlns="http://www.w3.org/2000/svg" xmlns:xlink="http://www.w3.org/1999/xlink" x="0px" y="0px"
	 viewBox="0 0 160 120" style="enable-background:new 0 0 160 120;" xml:space="preserve">
<style type="text/css">
	.st0{fill:none;stroke:#013243;stroke-width:10;stroke-linecap:round;stroke-linejoin:round;stroke-miterlimit:1.3889;}
	.st1{fill:#FFFFFF;stroke:#013243;stroke-width:10;stroke-linejoin:round;stroke-miterlimit:1.3889;}
</style>
<path class="st0" d="M37.2,92.9C32.1,71,26.9,49,21.8,27.1"/>
<path class="st0" d="M46.4,94.9c9-10.8,17.9-21.6,26.9-32.5"/>
<path class="st0" d="M50.5,102.2c26.4-2.2,52.8-4.5,79.1-6.8"/>
<path class="st0" d="M28.6,22.6c14.1,8.7,28.1,17.3,42.2,26"/>
<path class="st0" d="M89.3,48.7c7.3-4.4,14.6-8.8,21.9-13.2"/>
<path class="st0" d="M137.5,84.5c-4.7-14.9-9.3-29.8-14-44.7"/>
<path class="st1" d="M39.6,113.5c2.9,0,5.7-1.1,7.8-3c2.1-2,3.2-4.6,3.2-7.4c0-2.8-1.2-5.4-3.2-7.4c-2.1-2-4.9-3.1-7.8-3.1
	c-2.9,0-5.7,1.1-7.8,3.1c-2.1,2-3.2,4.6-3.2,7.4c0,2.8,1.2,5.4,3.2,7.4C33.9,112.4,36.7,113.5,39.6,113.5z"/>
<path class="st1" d="M19.4,27.3c2.9,0,5.7-1.1,7.8-3.1c2.1-2,3.2-4.6,3.2-7.4c0-2.8-1.2-5.4-3.2-7.4c-2.1-2-4.9-3-7.8-3
	c-2.9,0-5.7,1.1-7.8,3s-3.2,4.6-3.2,7.4c0,2.8,1.2,5.4,3.2,7.4S16.5,27.3,19.4,27.3z"/>
<path class="st1" d="M80,64.7c2.9,0,5.7-1.1,7.8-3c2.1-2,3.2-4.6,3.2-7.4c0-2.8-1.2-5.4-3.2-7.4c-2.1-2-4.9-3-7.8-3s-5.7,1.1-7.8,3
	c-2.1,2-3.2,4.6-3.2,7.4c0,2.8,1.2,5.4,3.2,7.4C74.3,63.6,77.1,64.7,80,64.7z"/>
<path class="st1" d="M140.6,104.9c2.9,0,5.7-1.1,7.8-3c2.1-2,3.2-4.6,3.2-7.4c0-2.8-1.2-5.4-3.2-7.4c-2.1-2-4.9-3-7.8-3
	c-2.9,0-5.7,1.1-7.8,3c-2.1,2-3.2,4.6-3.2,7.4c0,2.8,1.2,5.4,3.2,7.4C134.9,103.8,137.7,104.9,140.6,104.9z"/>
<path class="st1" d="M120.4,40.2c2.9,0,5.7-1.1,7.8-3c2.1-2,3.2-4.6,3.2-7.4c0-2.8-1.2-5.4-3.2-7.4c-2.1-2-4.9-3-7.8-3
	c-2.9,0-5.7,1.1-7.8,3s-3.2,4.6-3.2,7.4c0,2.8,1.2,5.4,3.2,7.4C114.7,39.1,117.5,40.2,120.4,40.2z"/>
</svg>
